<svg width="2500" height="2500" viewBox="0 0 256 256" xmlns="http://www.w3.org/2000/svg" preserveAspectRatio="xMidYMid">
  <path d="M254.251 124.862l-10.747-6.653a145.81 145.81 0 0 0-.306-3.13l9.236-8.615a3.686 3.686 0 0 0 1.105-3.427 3.685 3.685 0 0 0-2.33-2.744l-11.807-4.415a137.355 137.355 0 0 0-.925-3.048l7.365-10.229a3.698 3.698 0 0 0-2.407-5.814l-12.45-2.025c-.484-.944-.988-1.874-1.496-2.796l5.231-11.483a3.683 3.683 0 0 0-.288-3.59 3.678 3.678 0 0 0-3.204-1.642l-12.636.44a99.848 99.848 0 0 0-1.996-2.421l2.904-12.308a3.694 3.694 0 0 0-.986-3.466 3.698 3.698 0 0 0-3.464-.986l-12.305 2.901a106.192 106.192 0 0 0-2.426-1.996l.442-12.635a3.684 3.684 0 0 0-1.64-3.205 3.693 3.693 0 0 0-3.59-.29l-11.48 5.234a133.235 133.235 0 0 0-2.796-1.5l-2.03-12.452a3.7 3.7 0 0 0-5.812-2.407l-10.236 7.365c-1.007-.32-2.02-.629-3.042-.922L155.72 4.794a3.69 3.69 0 0 0-2.745-2.336 3.707 3.707 0 0 0-3.424 1.106l-8.615 9.243a111.11 111.11 0 0 0-3.13-.306l-6.653-10.75a3.698 3.698 0 0 0-6.289 0l-6.653 10.75a110.4 110.4 0 0 0-3.133.306l-8.617-9.243a3.695 3.695 0 0 0-6.169 1.23l-4.414 11.809c-1.023.293-2.035.604-3.045.922L82.599 10.16a3.687 3.687 0 0 0-3.579-.415 3.705 3.705 0 0 0-2.235 2.822l-2.03 12.452c-.94.487-1.869.988-2.796 1.5l-11.481-5.235a3.686 3.686 0 0 0-3.588.291 3.684 3.684 0 0 0-1.642 3.205l.44 12.635a118.03 118.03 0 0 0-2.426 1.996l-12.305-2.9a3.71 3.71 0 0 0-3.466.985 3.694 3.694 0 0 0-.986 3.466l2.899 12.308c-.673.797-1.338 1.604-1.991 2.421l-12.636-.44a3.721 3.721 0 0 0-3.204 1.641 3.696 3.696 0 0 0-.291 3.59l5.234 11.484c-.509.922-1.012 1.852-1.5 2.796l-12.449 2.025a3.7 3.7 0 0 0-2.407 5.814l7.365 10.23c-.32 1.01-.631 2.024-.925 3.047l-11.808 4.415a3.702 3.702 0 0 0-1.225 6.171l9.237 8.614c-.115 1.04-.217 2.087-.305 3.131L1.75 124.862A3.695 3.695 0 0 0 0 128.007c0 1.284.663 2.473 1.751 3.143l10.748 6.653c.088 1.047.19 2.092.305 3.131l-9.238 8.617a3.697 3.697 0 0 0 1.226 6.169l11.808 4.415c.294 1.022.605 2.037.925 3.047l-7.365 10.231a3.696 3.696 0 0 0 2.41 5.812l12.447 2.025c.487.944.986 1.874 1.5 2.8l-5.235 11.48a3.691 3.691 0 0 0 .291 3.59 3.684 3.684 0 0 0 3.204 1.641l12.63-.442c.659.821 1.322 1.626 1.997 2.426l-2.899 12.31a3.682 3.682 0 0 0 .986 3.459 3.683 3.683 0 0 0 3.466.983l12.305-2.898c.8.68 1.61 1.34 2.427 1.99l-.44 12.639a3.694 3.694 0 0 0 5.229 3.492l11.481-5.231a105.49 105.49 0 0 0 2.796 1.499l2.03 12.445a3.692 3.692 0 0 0 2.235 2.825 3.706 3.706 0 0 0 3.579-.413l10.229-7.37c1.01.32 2.025.633 3.047.927l4.415 11.804a3.685 3.685 0 0 0 2.744 2.331 3.677 3.677 0 0 0 3.425-1.106l8.617-9.238c1.04.12 2.086.22 3.133.313l6.653 10.748a3.702 3.702 0 0 0 3.143 1.75 3.703 3.703 0 0 0 3.145-1.75l6.653-10.748c1.047-.093 2.092-.193 3.131-.313l8.615 9.238a3.68 3.68 0 0 0 3.424 1.106 3.69 3.69 0 0 0 2.744-2.331l4.415-11.804c1.022-.294 2.038-.607 3.048-.927l10.231 7.37a3.7 3.7 0 0 0 5.812-2.412l2.03-12.445c.939-.487 1.868-.993 2.795-1.5l11.481 5.232a3.692 3.692 0 0 0 5.23-3.492l-.44-12.638a98.76 98.76 0 0 0 2.423-1.991l12.306 2.898c1.25.294 2.582-.097 3.466-.983a3.687 3.687 0 0 0 .986-3.46l-2.904-12.309c.675-.8 1.338-1.605 1.996-2.426l12.636.442a3.695 3.695 0 0 0 3.204-1.641 3.694 3.694 0 0 0 .288-3.589l-5.231-11.481c.508-.926 1.016-1.856 1.5-2.8l12.449-2.025a3.698 3.698 0 0 0 2.407-5.812l-7.365-10.231c.32-1.01.631-2.025.925-3.047l11.808-4.415a3.698 3.698 0 0 0 1.226-6.169l-9.238-8.617c.118-1.04.218-2.084.306-3.131l10.747-6.653a3.694 3.694 0 0 0 1.751-3.145 3.69 3.69 0 0 0-1.749-3.142" fill="white"/>
</svg>